<svg xmlns="http://www.w3.org/2000/svg" viewBox="0 0 64 64"><defs><linearGradient id="c" x1="0" y1="0" x2="1" y2="1"><stop offset="0" stop-color="#19f0ff"/><stop offset=".55" stop-color="#5ef7d8"/><stop offset="1" stop-color="#ff3d9e"/></linearGradient><filter id="b" x="-50%" y="-50%" width="200%" height="200%"><feGaussianBlur stdDeviation="2.4"/></filter></defs><rect width="64" height="64" rx="14" fill="#04060e"/><g fill="none" stroke="#0e6b7a" stroke-width="1" opacity=".55"><path d="M8 20h48M8 32h48M8 44h48M20 8v48M32 8v48M44 8v48"/></g><g fill="none" stroke="url(#c)" stroke-width="6" stroke-linecap="round"><path d="M46 16c-13 0-13 10-26 10s-13 10 0 10 26 0 26 10-13 10-26 10" filter="url(#b)" opacity=".75"/><path d="M46 16c-13 0-13 10-26 10s-13 10 0 10 26 0 26 10-13 10-26 10"/></g><circle cx="20" cy="56" r="4.4" fill="#fff"/><circle cx="46" cy="16" r="3" fill="#ffd24a"/></svg>
